<?xml version="1.0" encoding="UTF-8"?>
<!-- My Brand New Logo (1.0.87), id: NggAW7wq2BfAlWJqKnZn (1.0.7), date: 2021-07-28 21:28 -->
<svg version="1.1" preserveAspectRatio="xMidYMid meet" xmlns="http://www.w3.org/2000/svg" xmlns:xlink="http://www.w3.org/1999/xlink" viewBox="191.715 205.098 616.57 589.805" width="1000" height="958">
	<defs>
		<g id="def-1" transform="matrix(13.237, 0, 0, 13.237, 197.497, 210.88)" fill="#fff" stroke="none" stroke-width="1">
			<g transform="translate(-27.147, -28.158)">
				<g></g>
				<path d=" M70.852,35.496 h-3.115 v-1.919 c0 -0.829 -0.672 -1.5 -1.5 -1.5 H63.12 v-1.919 c0 -0.828 -0.672 -1.5 -1.5 -1.5 H29.147 c-0.829,0 -1.5,0.672 -1.5,1.5 v35.068 c0,3.372,2.743,6.115,6.116,6.115 h32.472 c3.372,0,6.116 -2.743,6.116 -6.115 v-28.23 C72.352,36.168,71.68,35.496,70.852,35.496 z M33.764,68.342 c-1.719,0 -3.116 -1.397 -3.116 -3.115 V31.658 H60.12 v33.559 c0,0.004 -0.001,0.007 -0.001,0.01 c0,0.26,0.021,0.514,0.053,0.766 c0.008,0.062,0.02,0.124,0.029,0.187 c0.03,0.195,0.07,0.388,0.119,0.576 c0.015,0.058,0.028,0.116,0.045,0.174 c0.069,0.238,0.148,0.472,0.245,0.696 c0.004,0.01,0.009,0.019,0.014,0.027 c0.092,0.213,0.198,0.417,0.313,0.617 c0.014,0.023,0.023,0.049,0.037,0.072 H33.764 z M69.352,65.227 c0,1.718 -1.397,3.115 -3.116,3.115 c-1.718,0 -3.115 -1.397 -3.115 -3.115 V35.077 h1.616 v1.909 c0,0.004 -0.001,0.006 -0.001,0.01 v28.553 c0,0.828,0.672,1.5,1.5,1.5 s1.5 -0.672,1.5 -1.5 V38.496 h1.616 V65.227 z M55.734,48.748 H35.031 c-0.828,0 -1.5,0.672 -1.5,1.5 s0.672,1.5,1.5,1.5 h20.703 c0.828,0,1.5 -0.672,1.5 -1.5 S56.562,48.748,55.734,48.748 z M55.734,61.311 H35.031 c-0.828,0 -1.5,0.672 -1.5,1.5 s0.672,1.5,1.5,1.5 h20.703 c0.828,0,1.5 -0.672,1.5 -1.5 S56.562,61.311,55.734,61.311 z M55.734,55.029 H35.031 c-0.828,0 -1.5,0.672 -1.5,1.5 s0.672,1.5,1.5,1.5 h20.703 c0.828,0,1.5 -0.672,1.5 -1.5 S56.562,55.029,55.734,55.029 z M55.734,36.186 H35.031 c-0.828,0 -1.5,0.672 -1.5,1.5 s0.672,1.5,1.5,1.5 h20.703 c0.828,0,1.5 -0.672,1.5 -1.5 S56.562,36.186,55.734,36.186 z M55.734,42.467 H35.031 c-0.828,0 -1.5,0.672 -1.5,1.5 s0.672,1.5,1.5,1.5 h20.703 c0.828,0,1.5 -0.672,1.5 -1.5 S56.562,42.467,55.734,42.467 z"></path>
			</g>
		</g>
		<mask id="mask-1" x="133.019" y="102.449" width="1064.328" height="719.37" maskUnits="userSpaceOnUse" stroke-width="0">
			<rect x="165.717" y="135.147" width="998.93" height="653.973" fill="#000"></rect>
			<use xlink:href="#def-1" fill="#fff" stroke="#fff"></use>
		</mask>
	</defs>
	<g mask="url(#mask-1)">
		<rect x="165.717" y="135.147" width="998.93" height="653.973" fill="#f24c48"></rect>
	</g>
</svg>
